<svg width="28" height="20" viewBox="0 0 28 20" fill="none" xmlns="http://www.w3.org/2000/svg">
<path d="M12.1291 6.96512C12.0705 6.78964 12.084 6.59809 12.1667 6.43259C12.2493 6.26709 12.3943 6.14118 12.5698 6.08256L13.9651 5.61744C14.07 5.58243 14.1817 5.57284 14.291 5.58947C14.4003 5.6061 14.5041 5.64848 14.5938 5.71309C14.6835 5.77771 14.7566 5.86272 14.807 5.96113C14.8574 6.05953 14.8837 6.16851 14.8837 6.27907V10.9302C14.8837 11.1153 14.8102 11.2927 14.6794 11.4236C14.5485 11.5544 14.3711 11.6279 14.186 11.6279C14.001 11.6279 13.8236 11.5544 13.6927 11.4236C13.5619 11.2927 13.4884 11.1153 13.4884 10.9302V7.24651L13.0116 7.40581C12.8362 7.46437 12.6446 7.45084 12.4791 7.3682C12.3136 7.28556 12.1877 7.14057 12.1291 6.96512ZM27.4419 19.3023C27.4419 19.4874 27.3684 19.6648 27.2375 19.7957C27.1067 19.9265 26.9292 20 26.7442 20H0.697674C0.51264 20 0.335183 19.9265 0.204344 19.7957C0.0735048 19.6648 0 19.4874 0 19.3023C0 19.1173 0.0735048 18.9398 0.204344 18.809C0.335183 18.6782 0.51264 18.6047 0.697674 18.6047H1.86047V7.2093C1.86047 6.77755 2.03198 6.36349 2.33727 6.0582C2.64256 5.75291 3.05662 5.5814 3.48837 5.5814H8.37209V1.62791C8.37209 1.19616 8.5436 0.782095 8.8489 0.476803C9.15419 0.171511 9.56825 0 10 0H17.4419C17.8736 0 18.2877 0.171511 18.593 0.476803C18.8983 0.782095 19.0698 1.19616 19.0698 1.62791V10.2326H23.9535C24.3852 10.2326 24.7993 10.4041 25.1046 10.7094C25.4099 11.0147 25.5814 11.4287 25.5814 11.8605V18.6047H26.7442C26.9292 18.6047 27.1067 18.6782 27.2375 18.809C27.3684 18.9398 27.4419 19.1173 27.4419 19.3023ZM19.0698 11.6279V18.6047H24.186V11.8605C24.186 11.7988 24.1615 11.7396 24.1179 11.696C24.0743 11.6524 24.0152 11.6279 23.9535 11.6279H19.0698ZM9.76744 18.6047H17.6744V1.62791C17.6744 1.56623 17.6499 1.50708 17.6063 1.46346C17.5627 1.41985 17.5035 1.39535 17.4419 1.39535H10C9.93832 1.39535 9.87917 1.41985 9.83556 1.46346C9.79194 1.50708 9.76744 1.56623 9.76744 1.62791V18.6047ZM3.25581 18.6047H8.37209V6.97674H3.48837C3.42669 6.97674 3.36754 7.00125 3.32393 7.04486C3.28032 7.08847 3.25581 7.14762 3.25581 7.2093V18.6047Z" fill="#666E7A"/>
</svg>
