<svg width="23" height="21" viewBox="0 0 23 21" fill="none" xmlns="http://www.w3.org/2000/svg">
<mask id="mask0_1132_1661" style="mask-type:alpha" maskUnits="userSpaceOnUse" x="3" y="0" width="17" height="21">
<mask id="mask1_1132_1661" style="mask-type:alpha" maskUnits="userSpaceOnUse" x="3" y="0" width="17" height="21">
<path d="M18.4445 0.957153H4.55558C3.7903 0.957153 3.16669 1.58076 3.16669 2.34604V19.0127C3.16669 19.778 3.7903 20.4016 4.55558 20.4016H18.4445C19.2097 20.4016 19.8334 19.778 19.8334 19.0127V2.34604C19.8334 1.58076 19.2097 0.957153 18.4445 0.957153ZM18.4445 19.0127H4.55558V2.34604H7.33335V3.04049C7.33335 3.42382 7.64446 3.73493 8.0278 3.73493H14.9722C15.3556 3.73493 15.6667 3.42382 15.6667 3.04049V2.34604H18.4445V19.0127ZM14.5894 8.70176C14.2644 8.37673 13.736 8.37507 13.4093 8.70009L10.6658 11.4453L9.58903 10.3669C9.264 10.0419 8.73562 10.0419 8.4106 10.3669C8.08557 10.6919 8.08557 11.2203 8.4106 11.5453L10.0774 13.2121C10.2391 13.3755 10.4524 13.4572 10.6658 13.4572C10.8791 13.4572 11.0925 13.3755 11.2558 13.2138L14.5894 9.88019C14.9145 9.55516 14.9145 9.02678 14.5894 8.70176Z" fill="white"/>
</mask>
<g mask="url(#mask1_1132_1661)">
<path d="M18.4445 0.957153H4.55558C3.7903 0.957153 3.16669 1.58076 3.16669 2.34604V19.0127C3.16669 19.778 3.7903 20.4016 4.55558 20.4016H18.4445C19.2097 20.4016 19.8334 19.778 19.8334 19.0127V2.34604C19.8334 1.58076 19.2097 0.957153 18.4445 0.957153ZM18.4445 19.0127H4.55558V2.34604H7.33335V3.04049C7.33335 3.42382 7.64446 3.73493 8.0278 3.73493H14.9722C15.3556 3.73493 15.6667 3.42382 15.6667 3.04049V2.34604H18.4445V19.0127ZM14.5894 8.70176C14.2644 8.37673 13.736 8.37507 13.4093 8.70009L10.6658 11.4453L9.58903 10.3669C9.264 10.0419 8.73562 10.0419 8.4106 10.3669C8.08557 10.6919 8.08557 11.2203 8.4106 11.5453L10.0774 13.2121C10.2391 13.3755 10.4524 13.4572 10.6658 13.4572C10.8791 13.4572 11.0925 13.3755 11.2558 13.2138L14.5894 9.88019C14.9145 9.55516 14.9145 9.02678 14.5894 8.70176Z" fill="#3281FF"/>
</g>
</mask>
<g mask="url(#mask0_1132_1661)">
<rect x="0.5" y="0.679321" width="22" height="20" fill="#666E7A"/>
</g>
</svg>
