<svg width="180" height="158" viewBox="0 0 180 158" fill="none" xmlns="http://www.w3.org/2000/svg">
<path fill-rule="evenodd" clip-rule="evenodd" d="M151.634 144.949C147.965 146.011 144.07 146.011 140.402 144.949V131.437L146.018 125.821L151.634 131.437V144.949ZM171.588 37.3344L103.01 3.04235C98.9137 1.04117 94.4152 0.000976563 89.8566 0.000976562C85.298 0.000976563 80.7995 1.04117 76.7036 3.04235L8.12062 37.3344C5.67966 38.5567 3.62714 40.4344 2.19292 42.7573C0.758692 45.0801 -0.000622414 47.7563 3.82809e-07 50.4862C0.000623179 53.2161 0.761158 55.892 2.19644 58.2142C3.63173 60.5363 5.6851 62.4131 8.12662 63.6344L28.0806 73.6143V106.648C28.0806 125.54 55.2176 140.348 89.8576 140.348C99.8747 140.401 109.851 139.063 119.5 136.372L116.377 125.578C107.743 127.98 98.8185 129.171 89.8576 129.116C60.0696 129.116 39.3126 117.272 39.3126 106.652V79.2293L76.6996 97.9314C80.7843 99.9711 85.2877 101.032 89.8533 101.031C94.419 101.03 98.9218 99.9669 103.006 97.9253L126.06 86.3953L121.039 76.3484L97.9786 87.8783C95.4487 89.1173 92.6691 89.7614 89.8521 89.7614C87.0352 89.7614 84.2555 89.1173 81.7256 87.8783L13.1586 53.5904C12.5805 53.3042 12.0937 52.8622 11.7532 52.3143C11.4127 51.7664 11.2319 51.1343 11.2313 50.4892C11.2307 49.8441 11.4102 49.2117 11.7497 48.6631C12.0891 48.1145 12.575 47.6716 13.1526 47.3844L81.7306 13.0904C84.2605 11.8514 87.0402 11.2073 89.8571 11.2073C92.6741 11.2073 95.4538 11.8514 97.9836 13.0904L166.556 47.3824C167.134 47.6685 167.621 48.1105 167.961 48.6584C168.302 49.2063 168.482 49.8384 168.483 50.4835C168.484 51.1286 168.304 51.761 167.965 52.3096C167.625 52.8582 167.139 53.3011 166.562 53.5884L145.636 64.0554L91.7106 45.1854L87.9996 55.7904L140.4 74.1303V115.554L129.17 126.79V152.242L132.276 153.792C136.569 155.872 141.251 157.03 146.019 157.192C150.787 157.03 155.468 155.872 159.762 153.792L162.868 152.242V126.79L151.636 115.558V73.6133L171.596 63.6334C174.037 62.411 176.089 60.5333 177.523 58.2104C178.958 55.8876 179.717 53.2114 179.716 50.4815C179.716 47.7516 178.955 45.0757 177.52 42.7536C176.085 40.4314 174.031 38.5546 171.59 37.3334L171.588 37.3344Z" fill="white"/>
</svg>
