<svg width="128" height="128" viewBox="0 0 128 128" fill="none" xmlns="http://www.w3.org/2000/svg">
<path d="M64 109.455C91.4131 109.455 113.636 108.158 113.636 106.557C113.636 104.957 91.4131 103.66 64 103.66C36.5869 103.66 14.3641 104.957 14.3641 106.557C14.3641 108.158 36.5869 109.455 64 109.455Z" fill="#F5F5F5"/>
<path d="M80.5299 76.3801H58.6854C58.2711 76.3801 57.9353 76.716 57.9353 77.1302V77.9904C57.9353 78.4046 58.2711 78.7404 58.6854 78.7404H80.5299C80.9441 78.7404 81.2799 78.4046 81.2799 77.9904V77.1302C81.2799 76.716 80.9441 76.3801 80.5299 76.3801Z" fill="#263238"/>
<path d="M80.3226 105.021H81.28L80.1792 78.7405H78.8531L80.3226 105.021Z" fill="#3E93C4"/>
<path opacity="0.6" d="M80.3226 105.021H81.28L80.1792 78.7405H78.8531L80.3226 105.021Z" fill="white"/>
<path d="M71.5085 105.021H70.551L71.6518 78.7405H72.9779L71.5085 105.021Z" fill="#3E93C4"/>
<path opacity="0.6" d="M71.5085 105.021H70.551L71.6518 78.7405H72.9779L71.5085 105.021Z" fill="white"/>
<path d="M67.7094 105.021H68.6669L67.5635 78.7405H66.24L67.7094 105.021Z" fill="#3E93C4"/>
<path opacity="0.6" d="M67.7094 105.021H68.6669L67.5635 78.7405H66.24L67.7094 105.021Z" fill="white"/>
<path d="M58.8927 105.021H57.9353L59.0387 78.7405H60.3622L58.8927 105.021Z" fill="#3E93C4"/>
<path opacity="0.6" d="M58.8927 105.021H57.9353L59.0387 78.7405H60.3622L58.8927 105.021Z" fill="white"/>
<g opacity="0.3">
<path d="M80.1792 78.7379H78.8531L78.9146 79.8566H80.2253L80.1792 78.7379Z" fill="#3E93C4"/>
<path d="M71.6058 79.8566H72.914L72.978 78.7379H71.6519L71.6058 79.8566Z" fill="#3E93C4"/>
<path d="M66.24 78.7379L66.3014 79.8566H67.6121L67.5635 78.7379H66.24Z" fill="#3E93C4"/>
<path d="M58.9901 79.8566H60.3034L60.3648 78.7379H59.0388L58.9901 79.8566Z" fill="#3E93C4"/>
</g>
<path d="M67.0925 101.158L64.9268 102.31L61.5117 97.6999L63.68 96.5479L67.0925 101.158Z" fill="#FFB573"/>
<path d="M64.1433 101.599L66.4063 100.027C66.4248 100.011 66.4465 99.9993 66.4698 99.9924C66.4931 99.9855 66.5176 99.9835 66.5417 99.9867C66.5658 99.9898 66.589 99.998 66.6098 100.011C66.6306 100.023 66.6485 100.04 66.6623 100.06L68.0166 101.773C68.0817 101.867 68.1072 101.983 68.0876 102.096C68.0679 102.209 68.0048 102.31 67.9116 102.377C67.1155 102.909 66.7571 103.096 65.7151 103.716C65.0726 104.095 63.5366 104.996 62.5919 105.408C61.6473 105.82 61.2684 104.873 61.6319 104.614C62.4947 104.005 63.6364 102.807 63.895 101.965C63.9349 101.819 64.0222 101.69 64.1433 101.599Z" fill="#263238"/>
<path opacity="0.2" d="M63.6826 96.5504L61.5117 97.6999L63.1578 99.9219L65.2775 98.7034L63.6826 96.5504Z" fill="black"/>
<path d="M68.9126 69.2403C68.9126 69.2403 52.0832 68.7155 52.0166 75.7478C51.9347 85.8547 61.527 99.1283 61.527 99.1283L65.28 96.6323C65.28 96.6323 58.7059 86.9837 58.6496 79.0937C63.6083 77.6934 75.2896 78.5817 76.8026 74.4601C78.0416 71.0963 77.3939 69.2403 77.3939 69.2403H68.9126Z" fill="#3E93C4"/>
<path opacity="0.2" d="M68.9126 69.2403C68.9126 69.2403 52.0832 68.7155 52.0166 75.7478C51.9347 85.8547 61.527 99.1283 61.527 99.1283L65.28 96.6323C65.28 96.6323 58.7059 86.9837 58.6496 79.0937C63.6083 77.6934 75.2896 78.5817 76.8026 74.4601C78.0416 71.0963 77.3939 69.2403 77.3939 69.2403H68.9126Z" fill="black"/>
<path d="M66.2989 97.2749L61.8343 100.009L60.434 98.5882L65.3389 95.4983L66.2989 97.2749Z" fill="#263238"/>
<path d="M63.6749 102.446C63.8536 102.317 64.0168 102.167 64.1613 102.001C64.1689 101.992 64.1739 101.982 64.1757 101.971C64.1775 101.96 64.1759 101.949 64.1713 101.939C64.1666 101.929 64.159 101.92 64.1495 101.914C64.14 101.908 64.1289 101.905 64.1177 101.906C64.023 101.906 63.1833 101.906 63.0041 102.18C62.9836 102.21 62.9712 102.246 62.9681 102.282C62.9649 102.319 62.9712 102.356 62.9862 102.39C63.0032 102.443 63.0339 102.491 63.0753 102.528C63.1166 102.565 63.1672 102.591 63.2217 102.602C63.3869 102.608 63.5482 102.552 63.6749 102.446ZM63.9846 102.024C63.6749 102.346 63.4009 102.518 63.2422 102.49C63.2066 102.482 63.1739 102.464 63.1477 102.439C63.1215 102.414 63.1028 102.382 63.0937 102.346C63.0842 102.331 63.0792 102.313 63.0792 102.295C63.0792 102.277 63.0842 102.259 63.0937 102.244C63.1961 102.1 63.6493 102.036 63.9846 102.024Z" fill="#3E93C4"/>
<path d="M64.1511 102.011C64.1583 102.005 64.1644 101.998 64.169 101.99C64.1739 101.982 64.1765 101.972 64.1765 101.962C64.1765 101.952 64.1739 101.943 64.169 101.934C64.1536 101.909 63.7952 101.299 63.4573 101.243C63.4118 101.234 63.3649 101.236 63.3203 101.249C63.2758 101.262 63.235 101.285 63.2013 101.317C63.1627 101.346 63.1348 101.387 63.1218 101.433C63.1089 101.479 63.1116 101.529 63.1296 101.573C63.2371 101.829 63.8285 102.037 64.1127 102.019L64.1511 102.011ZM63.3088 101.376C63.3273 101.362 63.3485 101.352 63.3709 101.347C63.3934 101.342 63.4167 101.341 63.4394 101.345C63.6416 101.379 63.8874 101.699 64.0154 101.893C63.7363 101.868 63.3165 101.688 63.2474 101.522C63.2346 101.491 63.2269 101.448 63.2909 101.391C63.296 101.397 63.3011 101.389 63.3088 101.376Z" fill="#3E93C4"/>
<path d="M63.0861 103.985L60.6541 103.869L60.2548 98.1273L62.6868 98.2425L63.0861 103.985Z" fill="#FFB573"/>
<path d="M60.5977 103.455L63.3497 103.368C63.3962 103.364 63.4422 103.379 63.4777 103.409C63.5131 103.44 63.5352 103.483 63.5392 103.529L63.7414 105.702C63.7456 105.817 63.704 105.929 63.6258 106.014C63.5476 106.098 63.4391 106.148 63.3241 106.153C62.3667 106.153 61.9059 106.125 60.695 106.153C59.95 106.176 58.4857 106.286 57.4643 106.153C56.4428 106.02 56.599 105.019 57.0419 104.98C58.094 104.896 59.5046 104.169 60.1804 103.603C60.2994 103.509 60.4461 103.457 60.5977 103.455Z" fill="#263238"/>
<path d="M59.7427 103.908C59.9627 103.896 60.1808 103.86 60.3929 103.8C60.4036 103.798 60.4132 103.792 60.4206 103.784C60.4279 103.775 60.4327 103.765 60.4344 103.754C60.436 103.743 60.4344 103.732 60.4298 103.722C60.4251 103.712 60.4177 103.704 60.4083 103.698C60.3289 103.647 59.6198 103.186 59.3254 103.319C59.2918 103.334 59.2624 103.357 59.24 103.386C59.2176 103.415 59.203 103.449 59.1974 103.485C59.1822 103.539 59.1816 103.596 59.1956 103.65C59.2095 103.704 59.2375 103.753 59.2768 103.793C59.4119 103.889 59.5784 103.93 59.7427 103.908ZM60.2316 103.724C59.7964 103.823 59.4636 103.821 59.3561 103.711C59.3311 103.684 59.3135 103.652 59.305 103.616C59.2965 103.581 59.2973 103.544 59.3075 103.509C59.3096 103.491 59.3164 103.474 59.3272 103.459C59.338 103.445 59.3524 103.434 59.3689 103.427C59.5276 103.357 59.9424 103.549 60.2316 103.724Z" fill="#3E93C4"/>
<path d="M60.3801 103.803C60.3885 103.805 60.3973 103.805 60.4057 103.803C60.414 103.798 60.421 103.792 60.426 103.784C60.4309 103.775 60.4336 103.766 60.4339 103.757C60.4339 103.726 60.4697 103.019 60.2137 102.789C60.1802 102.757 60.1393 102.734 60.0947 102.721C60.05 102.709 60.003 102.707 59.9577 102.717C59.9087 102.72 59.8621 102.739 59.8254 102.772C59.7887 102.804 59.764 102.848 59.7555 102.897C59.7068 103.153 60.0883 103.665 60.3366 103.803C60.3507 103.808 60.366 103.808 60.3801 103.803ZM60.014 102.82C60.0366 102.818 60.0592 102.822 60.0804 102.83C60.1015 102.838 60.1208 102.85 60.1369 102.866C60.2905 103.004 60.3212 103.406 60.3238 103.634C60.1036 103.46 59.8476 103.081 59.8809 102.904C59.8809 102.871 59.9039 102.83 59.9859 102.817L60.014 102.82Z" fill="#3E93C4"/>
<path opacity="0.2" d="M62.6893 98.2425L60.2548 98.1273L60.4826 101.412L62.9095 101.409L62.6893 98.2425Z" fill="black"/>
<path d="M74.8979 69.2404C74.8979 69.2404 57.2902 70.9044 57.9302 76.2061C58.857 83.8503 59.3126 100.326 59.3126 100.326L63.8003 100.503C63.8003 100.503 65.7024 85.6551 64.7194 77.8138C69.2762 77.8138 80.4326 78.1415 81.449 75.3972C82.3475 72.9703 82.0275 69.2532 82.0275 69.2532L74.8979 69.2404Z" fill="#3E93C4"/>
<path d="M64.297 100.78L58.9107 100.513L58.7162 98.1683L64.6247 98.5754L64.297 100.78Z" fill="#263238"/>
<path d="M70.9914 53.7114C70.9581 54.1414 70.9248 54.5152 70.8762 54.9095C70.8276 55.3037 70.7764 55.6774 70.7149 56.0768C70.5946 56.8448 70.441 57.6128 70.2618 58.3987C69.9129 60.0226 69.3453 61.5917 68.5748 63.063C68.3448 63.4764 68.0801 63.8695 67.7837 64.2381C67.4523 64.6541 67.0606 65.0183 66.6215 65.3184C65.7766 65.8795 64.7996 66.2096 63.7876 66.2759C62.9014 66.3339 62.0117 66.2474 61.1533 66.0199C60.7482 65.9162 60.3498 65.788 59.9604 65.6359C59.7658 65.5616 59.5764 65.4797 59.3895 65.3798C59.2026 65.28 59.0285 65.1981 58.8135 65.0829L59.4868 63.3702L59.9757 63.4317L60.4877 63.4829C60.8308 63.511 61.1687 63.529 61.5117 63.529C62.1336 63.5395 62.7542 63.468 63.3575 63.3165C63.8408 63.2005 64.2883 62.9676 64.6605 62.6381C64.8201 62.4888 64.9626 62.3222 65.0855 62.1414C65.2367 61.9086 65.3719 61.6657 65.49 61.4144C65.7607 60.827 65.9825 60.2182 66.153 59.5942C66.3476 58.9466 66.5037 58.2682 66.6445 57.577C66.7853 56.8858 66.9005 56.1869 67.0157 55.4829L67.1668 54.423C67.2128 54.0749 67.264 53.7011 67.2973 53.399L70.9914 53.7114Z" fill="#FFB573"/>
<path d="M71.0067 51.625C69.2147 49.8867 66.9875 50.9133 66.1018 54.185C65.6004 55.9315 65.2577 57.7196 65.0778 59.5277L70.7789 60.7053C71.8157 57.5847 72.8499 53.4067 71.0067 51.625Z" fill="#263238"/>
<path opacity="0.3" d="M69.1712 55.1833C69.5783 54.8173 70.7354 56.4633 71.442 58.4934C71.2423 59.2614 71.0144 60.0012 70.7815 60.695L67.3511 59.9859C67.625 57.9584 68.2573 56.0077 69.1712 55.1833Z" fill="black"/>
<path d="M59.1001 62.6022L57.8201 62.1133L57.7638 64.8294C57.7638 64.8294 59.9142 65.7587 60.352 64.6912L60.1984 64.0128C60.1243 63.7139 59.9882 63.4339 59.799 63.1909C59.6098 62.9479 59.3717 62.7473 59.1001 62.6022Z" fill="#FFB573"/>
<path d="M56.3098 62.185L55.5546 64.4634L57.7741 64.8294L57.8304 62.1133L56.3098 62.185Z" fill="#FFB573"/>
<path d="M58.2451 64C58.218 64.0004 58.1914 63.9932 58.1683 63.9792C58.1452 63.9651 58.1266 63.9448 58.1145 63.9206L55.8284 59.52C55.8103 59.4853 55.8066 59.4449 55.8181 59.4075C55.8296 59.3701 55.8554 59.3388 55.8899 59.3203C55.925 59.3031 55.9654 59.3001 56.0026 59.312C56.0399 59.324 56.071 59.3499 56.0896 59.3843L58.3679 63.7773C58.3861 63.8119 58.3898 63.8524 58.3783 63.8897C58.3668 63.9271 58.341 63.9585 58.3065 63.977C58.2877 63.9886 58.2669 63.9964 58.2451 64Z" fill="#263238"/>
<path d="M70.7943 49.8815L73.5284 49.1135L77.0407 48.9497C77.5741 48.9241 78.1012 49.0746 78.5407 49.3781C78.9801 49.6816 79.3076 50.1211 79.4727 50.6291C80.1409 52.6771 80.7527 55.6262 81.2058 58.1785C81.7178 61.0431 81.9738 65.3465 82.0276 69.2531H68.9127C68.6132 61.0995 67.5764 56.279 67.1207 53.6115C67.0298 53.0887 67.1128 52.5505 67.3569 52.0794C67.601 51.6082 67.9929 51.2301 68.4724 51.0028L70.7943 49.8815Z" fill="#263238"/>
<path opacity="0.3" d="M81.2057 58.1683C80.8524 56.1587 80.3968 53.8957 79.8899 52.0243C77.5526 51.6301 76.4211 56.7552 77.1148 59.2973C77.8086 61.8394 81.5078 60.2982 81.5078 60.2982C81.4208 59.5328 81.3184 58.8134 81.2057 58.1683Z" fill="black"/>
<path d="M73.0624 43.776C73.6256 45.1584 73.2877 47.6928 72.1767 46.976C71.0656 46.2592 72.7194 42.9363 73.0624 43.776Z" fill="#263238"/>
<path d="M72.448 44.6617L71.3856 46.2848L69.9418 48.4941C70.1283 48.6831 70.2792 48.9042 70.3872 49.1469C70.6432 49.6793 70.8711 50.0761 69.7524 50.839C69.6322 50.9161 69.5367 51.0261 69.4772 51.1559C69.4178 51.2857 69.3969 51.4298 69.417 51.5712C69.4836 51.9168 69.8266 52.2521 71.0324 52.0397C72.1944 51.8172 73.2547 51.2287 74.0583 50.3603C74.4602 49.9584 74.368 49.6563 73.9815 49.239C72.8756 48.0614 72.5479 46.1798 72.448 44.6617Z" fill="#FFB573"/>
<path opacity="0.2" d="M70.2874 47.9488L71.1731 46.3744C71.1919 46.4153 71.2124 46.4589 71.2346 46.505C71.3132 46.6994 71.3766 46.8997 71.424 47.104C71.5853 47.8029 71.0426 48.8013 70.4461 49.2774L70.377 49.1418C70.2695 48.9151 70.1317 48.7041 69.9674 48.5145C69.9569 48.5041 69.9448 48.4955 69.9315 48.489L70.2874 47.9488Z" fill="black"/>
<path d="M64.9703 42.752C64.64 43.4969 65.8099 45.6064 67.1488 44.7539C68.4877 43.9014 65.5539 41.4336 64.9703 42.752Z" fill="#263238"/>
<path d="M71.4239 52.4928C71.4063 52.493 71.3891 52.487 71.3755 52.4757C71.3619 52.4645 71.3528 52.4487 71.3497 52.4313C71.2524 51.799 70.8377 51.4073 70.3692 50.9312C69.7753 50.3501 69.102 49.6896 68.8819 48.3968C68.8785 48.3778 68.8828 48.3582 68.8938 48.3423C68.9049 48.3265 68.9217 48.3157 68.9407 48.3123C68.9598 48.3089 68.9793 48.3132 68.9952 48.3242C69.011 48.3353 69.0218 48.3522 69.0252 48.3712C69.2403 49.6179 69.8956 50.2604 70.4716 50.8262C70.9452 51.2896 71.3907 51.7273 71.4956 52.4083C71.4975 52.4179 71.4973 52.4278 71.4952 52.4373C71.493 52.4469 71.4889 52.4559 71.4832 52.4638C71.4774 52.4717 71.4701 52.4784 71.4617 52.4834C71.4533 52.4883 71.4439 52.4915 71.4342 52.4928H71.4239Z" fill="white"/>
<path d="M71.9692 42.0019C72.4812 44.3212 72.8806 45.655 72.0537 47.1219C70.8044 49.3414 67.6812 49.0393 66.4934 46.9043C65.4233 44.9843 64.7859 41.5129 66.775 40.0153C67.22 39.6844 67.7414 39.4712 68.2908 39.3955C68.8401 39.3198 69.3997 39.3839 69.9177 39.582C70.4357 39.7801 70.8953 40.1058 71.2539 40.5288C71.6125 40.9518 71.8586 41.4585 71.9692 42.0019Z" fill="#FFB573"/>
<path d="M72.6579 43.5943C71.8592 44.7284 69.7651 42.6471 69.9366 41.2493C67.8579 42.432 65.6 44.0116 64.2304 42.6804C62.6483 41.1444 63.081 38.9428 64.9344 38.7456C64.6067 39.3856 66.4704 39.6698 67.4611 38.6816C69.1379 37.0228 71.7875 37.3684 71.7389 38.7124C73.0163 38.2055 74.4115 41.1034 72.6579 43.5943Z" fill="#263238"/>
<path d="M71.4932 39.0886C71.9873 38.72 71.6596 37.4067 70.5127 37.0227C71.6033 37.1635 72.7322 37.975 71.4932 39.0886Z" fill="#263238"/>
<path d="M73.3978 43.4918C73.4198 44.0221 73.2468 44.5421 72.9114 44.9535C72.4711 45.4783 71.7927 45.0611 71.6314 44.4057C71.4906 43.8195 71.6724 42.9107 72.2509 42.6291C72.8295 42.3475 73.3671 42.8313 73.3978 43.4918Z" fill="#FFB573"/>
<path d="M68.6413 43.8834C68.7027 44.0703 68.6566 44.2598 68.5338 44.3033C68.4109 44.3468 68.2778 44.2316 68.2035 44.0473C68.1293 43.863 68.1882 43.671 68.311 43.6249C68.4339 43.5788 68.5798 43.694 68.6413 43.8834Z" fill="#263238"/>
<path d="M66.5421 44.6515C66.6061 44.8409 66.5575 45.0304 66.4346 45.0739C66.3117 45.1174 66.1658 45.0022 66.1044 44.8179C66.0429 44.6336 66.0916 44.4415 66.2119 44.398C66.3322 44.3545 66.4807 44.4646 66.5421 44.6515Z" fill="#263238"/>
<path d="M67.2614 44.5439C67.2699 45.1039 67.2044 45.6625 67.0669 46.2054C67.4432 46.3436 67.8579 46.0185 67.8579 46.0185L67.2614 44.5439Z" fill="#ED893E"/>
<path d="M68.3852 47.0604C68.6032 46.9888 68.8044 46.8736 68.9765 46.7217C69.1486 46.5699 69.2879 46.3846 69.3862 46.1773C69.3922 46.163 69.3923 46.1469 69.3866 46.1325C69.3808 46.1182 69.3697 46.1066 69.3555 46.1005C69.3408 46.0953 69.3248 46.0958 69.3105 46.102C69.2963 46.1082 69.2849 46.1195 69.2787 46.1337C69.1687 46.3573 69.0088 46.5526 68.8112 46.7044C68.6137 46.8562 68.3838 46.9605 68.1395 47.0093C68.1315 47.0103 68.1237 47.013 68.1168 47.0171C68.1099 47.0212 68.1039 47.0268 68.0992 47.0333C68.0945 47.0399 68.0912 47.0473 68.0895 47.0552C68.0878 47.0631 68.0877 47.0713 68.0893 47.0792C68.0909 47.0871 68.0941 47.0946 68.0987 47.1012C68.1033 47.1079 68.1092 47.1135 68.1161 47.1177C68.1229 47.122 68.1306 47.1248 68.1386 47.1259C68.1466 47.1271 68.1547 47.1266 68.1625 47.1244C68.2381 47.1081 68.3125 47.0867 68.3852 47.0604Z" fill="#263238"/>
<path d="M68.8333 43.0695C68.8511 43.061 68.8662 43.0477 68.8768 43.0311C68.8932 43.0049 68.8986 42.9733 68.8919 42.9431C68.8852 42.9129 68.8669 42.8866 68.841 42.8698C68.6895 42.7676 68.5152 42.7043 68.3335 42.6856C68.1517 42.6668 67.9682 42.6932 67.799 42.7623C67.7849 42.7686 67.7722 42.7777 67.7616 42.7891C67.7511 42.8004 67.7429 42.8138 67.7377 42.8284C67.7324 42.843 67.7301 42.8585 67.731 42.8739C67.7319 42.8894 67.7359 42.9045 67.7427 42.9184C67.7565 42.9461 67.7806 42.9672 67.8098 42.9773C67.839 42.9873 67.871 42.9855 67.8989 42.9722C68.0324 42.9207 68.1763 42.9021 68.3185 42.9182C68.4607 42.9342 68.5969 42.9844 68.7155 43.0644C68.7327 43.0763 68.7528 43.0831 68.7737 43.084C68.7945 43.0849 68.8152 43.0799 68.8333 43.0695Z" fill="#263238"/>
<path d="M66.1273 43.438C66.1322 43.4187 66.1322 43.3985 66.1273 43.3791C66.1149 43.3508 66.0919 43.3284 66.0631 43.3169C66.0344 43.3054 66.0022 43.3057 65.9737 43.3177C65.8032 43.3838 65.6518 43.4911 65.533 43.63C65.4141 43.769 65.3316 43.9352 65.2927 44.1139C65.2877 44.1441 65.2948 44.1751 65.3125 44.2C65.3303 44.225 65.3573 44.2419 65.3875 44.247C65.4177 44.2521 65.4487 44.2449 65.4736 44.2272C65.4986 44.2094 65.5155 44.1825 65.5206 44.1522C65.5539 44.0127 65.6207 43.8833 65.7153 43.7754C65.8099 43.6674 65.9293 43.5841 66.0633 43.5327C66.0811 43.5237 66.0964 43.5102 66.1076 43.4937C66.1188 43.4771 66.1256 43.4579 66.1273 43.438Z" fill="#263238"/>
<path d="M79.0195 50.688C79.2755 51.1027 79.4803 51.4765 79.6928 51.8758C79.9052 52.2752 80.11 52.6643 80.3097 53.0637C80.7142 53.8598 81.0777 54.679 81.431 55.5136C81.7843 56.3482 82.094 57.2083 82.3603 58.1043C82.6516 59.0448 82.8471 60.0122 82.944 60.992C82.9957 61.5639 82.9759 62.1401 82.8851 62.7072C82.8266 63.0812 82.7127 63.4445 82.5472 63.785C82.3554 64.1697 82.0891 64.5125 81.7638 64.7936C81.471 65.0481 81.1368 65.2507 80.7756 65.3926C80.4726 65.5117 80.1576 65.5975 79.8361 65.6486C79.2933 65.7335 78.7418 65.7481 78.1952 65.6921C77.7071 65.6507 77.2227 65.5728 76.7462 65.4592C76.2913 65.3556 75.8418 65.2292 75.3996 65.0803C74.5307 64.7926 73.6865 64.4347 72.8755 64.0102L73.5232 62.2873C75.1155 62.5894 76.8256 62.8685 78.2617 62.7814C78.5758 62.765 78.8868 62.7117 79.1884 62.6227C79.4444 62.5459 79.575 62.4307 79.5648 62.3949C79.5545 62.359 79.5494 62.3949 79.5443 62.3693C79.5392 62.3437 79.5443 62.3411 79.5443 62.2105C79.5602 61.9228 79.543 61.6342 79.4931 61.3504C79.3706 60.6198 79.1795 59.9024 78.9222 59.2077C78.6662 58.4653 78.3564 57.7152 78.0211 56.9728C77.6857 56.2304 77.3248 55.4854 76.9587 54.743C76.7744 54.371 76.5841 54.0032 76.3878 53.6397L75.8092 52.567L79.0195 50.688Z" fill="#FFB573"/>
<path d="M77.824 48.9754C75.351 48.5991 74.135 50.7213 75.2998 53.8906C75.9013 55.605 76.657 57.2613 77.5578 58.8391L82.8902 56.5018C81.92 53.3658 80.3533 49.362 77.824 48.9754Z" fill="#263238"/>
<path d="M72.151 62.0519L71.0093 62.3949L72.6298 64.6989C72.6298 64.6989 75.031 63.8387 74.5395 62.7943L73.9354 62.4512C73.4182 62.1517 72.7629 61.8419 72.151 62.0519Z" fill="#FFB573"/>
<path d="M69.998 63.9821L71.1424 65.1239L72.6297 64.6963L71.0093 62.3949L69.998 63.9821Z" fill="#FFB573"/>
<path d="M72.4941 44.224C72.6977 44.224 72.8628 44.0246 72.8628 43.7786C72.8628 43.5326 72.6977 43.3331 72.4941 43.3331C72.2905 43.3331 72.1255 43.5326 72.1255 43.7786C72.1255 44.0246 72.2905 44.224 72.4941 44.224Z" fill="white"/>
<path d="M72.7987 44.9561L72.5863 44.9484L72.4557 43.9219L72.8602 43.8323L72.7987 44.9561Z" fill="white"/>
<path d="M74.2681 64.3072C73.5001 64.3072 72.8192 64.192 72.407 63.8183C72.2533 63.6702 72.1336 63.4905 72.0563 63.2916C71.9789 63.0927 71.9457 62.8793 71.959 62.6663C71.9824 61.6106 72.1469 60.5628 72.448 59.5508C72.8038 58.1556 73.0854 57.0548 72.2304 55.6954C70.8685 53.5373 71.2755 50.5191 72.2304 48.6272C72.96 47.1808 72.704 45.568 72.6118 44.9741C72.599 44.8973 72.5888 44.8359 72.5837 44.7949C72.5826 44.7853 72.5835 44.7756 72.5863 44.7663C72.5891 44.757 72.5938 44.7484 72.6 44.741C72.6062 44.7336 72.6139 44.7275 72.6225 44.7232C72.6311 44.7188 72.6406 44.7162 72.6502 44.7156C72.6695 44.7134 72.6889 44.7189 72.7043 44.7308C72.7196 44.7428 72.7296 44.7603 72.7321 44.7796C72.7321 44.818 72.7449 44.8768 72.7552 44.9511C72.8525 45.568 73.1059 47.2039 72.3533 48.6938C71.4189 50.5498 71.0195 53.5066 72.3533 55.6058C73.2416 57.0164 72.9395 58.2016 72.5888 59.5738C72.2938 60.5721 72.1329 61.6051 72.1101 62.6458C72.0962 62.8383 72.1246 63.0315 72.1931 63.2119C72.2616 63.3923 72.3687 63.5555 72.5069 63.6903C73.1981 64.3124 74.7238 64.1536 76.1984 64C76.8589 63.9335 77.5424 63.8618 78.144 63.8618C78.1637 63.8618 78.1826 63.8696 78.1965 63.8835C78.2104 63.8975 78.2182 63.9163 78.2182 63.936C78.2182 63.9557 78.2104 63.9746 78.1965 63.9885C78.1826 64.0025 78.1637 64.0103 78.144 64.0103C77.5501 64.0103 76.864 64.0794 76.2137 64.1485C75.5683 64.2341 74.9189 64.2871 74.2681 64.3072Z" fill="white"/>
<path d="M81.2084 63.7594H78.2951C78.2103 63.7594 78.1415 63.8282 78.1415 63.913V64.1178C78.1415 64.2026 78.2103 64.2714 78.2951 64.2714H81.2084C81.2932 64.2714 81.362 64.2026 81.362 64.1178V63.913C81.362 63.8282 81.2932 63.7594 81.2084 63.7594Z" fill="white"/>
<path d="M99.4918 65.9763H28.5081C28.2822 65.9756 28.0658 65.8856 27.9061 65.7259C27.7463 65.5662 27.6563 65.3497 27.6556 65.1238C27.6563 64.898 27.7463 64.6815 27.9061 64.5218C28.0658 64.3621 28.2822 64.272 28.5081 64.2714H99.4918C99.7177 64.272 99.9341 64.3621 100.094 64.5218C100.254 64.6815 100.344 64.898 100.344 65.1238C100.344 65.3497 100.254 65.5662 100.094 65.7259C99.9341 65.8856 99.7177 65.9756 99.4918 65.9763Z" fill="#3E93C4"/>
<path opacity="0.3" d="M99.4918 65.9763H82.8748C82.6489 65.9756 82.4325 65.8856 82.2728 65.7259C82.113 65.5662 82.023 65.3497 82.0223 65.1238C82.023 64.898 82.113 64.6815 82.2728 64.5218C82.4325 64.3621 82.6489 64.272 82.8748 64.2714H99.4918C99.7177 64.272 99.9341 64.3621 100.094 64.5218C100.254 64.6815 100.344 64.898 100.344 65.1238C100.344 65.3497 100.254 65.5662 100.094 65.7259C99.9341 65.8856 99.7177 65.9756 99.4918 65.9763Z" fill="#263238"/>
<path d="M98.7084 106.143H100.344L98.4626 65.9763H96.1996L98.7084 106.143Z" fill="#263238"/>
<path opacity="0.1" d="M98.7084 106.143H100.344L98.4626 65.9763H96.1996L98.7084 106.143Z" fill="white"/>
<path d="M83.6582 106.143H82.0223L83.9039 65.9763H86.167L83.6582 106.143Z" fill="#263238"/>
<path opacity="0.2" d="M83.6582 106.143H82.0223L83.9039 65.9763H86.167L83.6582 106.143Z" fill="white"/>
<path d="M44.3442 106.143H45.9775L44.0959 65.9763H41.8329L44.3442 106.143Z" fill="#263238"/>
<path opacity="0.1" d="M44.3442 106.143H45.9775L44.0959 65.9763H41.8329L44.3442 106.143Z" fill="white"/>
<path d="M29.2915 106.143H27.6556L29.5372 65.9763H31.8003L29.2915 106.143Z" fill="#263238"/>
<path opacity="0.2" d="M29.2915 106.143H27.6556L29.5372 65.9763H31.8003L29.2915 106.143Z" fill="white"/>
<path d="M84.6054 68.1139H30.0134V71.4803H84.6054V68.1139Z" fill="#263238"/>
<path opacity="0.2" d="M84.6054 68.1139H30.0134V71.4803H84.6054V68.1139Z" fill="white"/>
<path d="M38.9965 62.0083C38.9019 62.0083 38.8111 62.0457 38.7439 62.1124C38.6768 62.179 38.6387 62.2695 38.6381 62.3641V63.9001C38.6381 63.9952 38.6758 64.0863 38.743 64.1535C38.8103 64.2208 38.9014 64.2585 38.9965 64.2585H50.6061C50.6369 64.2585 50.6664 64.2465 50.6884 64.2249C50.7105 64.2034 50.7232 64.1741 50.7238 64.1433V62.1107C50.7232 62.0799 50.7105 62.0506 50.6884 62.0291C50.6664 62.0075 50.6369 61.9955 50.6061 61.9955L38.9965 62.0083Z" fill="#3E93C4"/>
<path opacity="0.9" d="M45.8675 62.2234H50.7315V64.0563H45.8675C45.8125 64.0563 45.7598 64.0345 45.7209 63.9956C45.682 63.9567 45.6602 63.904 45.6602 63.849V62.4282C45.6608 62.3736 45.683 62.3216 45.7218 62.2832C45.7606 62.2449 45.813 62.2234 45.8675 62.2234Z" fill="white"/>
<path d="M45.0688 62.0083H33.3414C33.1435 62.0083 32.983 62.1688 32.983 62.3667V63.9155C32.983 64.1134 33.1435 64.2739 33.3414 64.2739H45.0688C45.2667 64.2739 45.4272 64.1134 45.4272 63.9155V62.3667C45.4272 62.1688 45.2667 62.0083 45.0688 62.0083Z" fill="#3E93C4"/>
<path opacity="0.2" d="M45.0688 62.0083H33.3414C33.1435 62.0083 32.983 62.1688 32.983 62.3667V63.9155C32.983 64.1134 33.1435 64.2739 33.3414 64.2739H45.0688C45.2667 64.2739 45.4272 64.1134 45.4272 63.9155V62.3667C45.4272 62.1688 45.2667 62.0083 45.0688 62.0083Z" fill="black"/>
<path opacity="0.5" d="M39.3011 62.0083H37.5219C37.4413 62.0083 37.376 62.0736 37.376 62.1542V64.128C37.376 64.2086 37.4413 64.2739 37.5219 64.2739H39.3011C39.3817 64.2739 39.447 64.2086 39.447 64.128V62.1542C39.447 62.0736 39.3817 62.0083 39.3011 62.0083Z" fill="#3E93C4"/>
<path opacity="0.5" d="M41.8687 62.0083H40.0921C40.0115 62.0083 39.9462 62.0736 39.9462 62.1542V64.128C39.9462 64.2086 40.0115 64.2739 40.0921 64.2739H41.8687C41.9493 64.2739 42.0146 64.2086 42.0146 64.128V62.1542C42.0146 62.0736 41.9493 62.0083 41.8687 62.0083Z" fill="#3E93C4"/>
<path d="M36.8972 59.2179C36.8502 59.2179 36.8035 59.2272 36.7601 59.2452C36.7166 59.2632 36.6771 59.2896 36.6438 59.3229C36.6105 59.3561 36.5841 59.3957 36.5661 59.4391C36.5481 59.4826 36.5388 59.5292 36.5388 59.5763V61.6499C36.5388 61.697 36.5481 61.7436 36.5661 61.787C36.5841 61.8305 36.6105 61.87 36.6438 61.9033C36.6771 61.9366 36.7166 61.963 36.7601 61.981C36.8035 61.999 36.8502 62.0083 36.8972 62.0083H49.4745C49.5053 62.0076 49.5346 61.9949 49.5561 61.9729C49.5777 61.9509 49.5897 61.9213 49.5897 61.8905V59.3305C49.5897 59.2997 49.5777 59.2702 49.5561 59.2482C49.5346 59.2261 49.5053 59.2134 49.4745 59.2128L36.8972 59.2179Z" fill="#3E93C4"/>
<path opacity="0.9" d="M43.7759 59.4355H49.5973V61.7933H43.7759C43.7209 61.7933 43.6682 61.7715 43.6293 61.7326C43.5904 61.6937 43.5685 61.6409 43.5685 61.5859V59.648C43.5679 59.6204 43.5727 59.5929 43.5828 59.5671C43.5929 59.5413 43.6081 59.5179 43.6274 59.4981C43.6468 59.4783 43.6699 59.4625 43.6953 59.4518C43.7208 59.4411 43.7482 59.4355 43.7759 59.4355Z" fill="white"/>
<path d="M42.967 59.2179H33.1058C32.9079 59.2179 32.7474 59.3784 32.7474 59.5763V61.6473C32.7474 61.8453 32.9079 62.0057 33.1058 62.0057H42.967C43.1649 62.0057 43.3254 61.8453 43.3254 61.6473V59.5763C43.3254 59.3784 43.1649 59.2179 42.967 59.2179Z" fill="#3E93C4"/>
<path opacity="0.2" d="M42.967 59.2179H33.1058C32.9079 59.2179 32.7474 59.3784 32.7474 59.5763V61.6473C32.7474 61.8453 32.9079 62.0057 33.1058 62.0057H42.967C43.1649 62.0057 43.3254 61.8453 43.3254 61.6473V59.5763C43.3254 59.3784 43.1649 59.2179 42.967 59.2179Z" fill="white"/>
<path opacity="0.6" d="M42.0429 59.7709H34.8211C34.7009 59.7709 34.6035 59.8683 34.6035 59.9885V61.2352C34.6035 61.3554 34.7009 61.4528 34.8211 61.4528H42.0429C42.1631 61.4528 42.2605 61.3554 42.2605 61.2352V59.9885C42.2605 59.8683 42.1631 59.7709 42.0429 59.7709Z" fill="#3E93C4"/>
<path d="M40.5862 57.8842C40.3891 57.8842 40.2278 57.9789 40.2278 58.0941V59.008C40.2278 59.1232 40.3891 59.2179 40.5862 59.2179H52.1983C52.2623 59.2179 52.3135 59.1872 52.3135 59.1514V57.9533C52.3135 57.9149 52.2623 57.8842 52.1983 57.8842H40.5862Z" fill="#3E93C4"/>
<path opacity="0.9" d="M47.4112 58.0096H52.3136V59.09H47.4112C47.3691 59.09 47.3287 59.0732 47.2989 59.0435C47.2692 59.0137 47.2524 58.9733 47.2524 58.9312V58.1632C47.2538 58.122 47.2711 58.083 47.3007 58.0543C47.3303 58.0256 47.3699 58.0096 47.4112 58.0096Z" fill="white"/>
<path d="M46.743 57.8842H34.8467C34.6954 57.8842 34.5728 58.0068 34.5728 58.1581V58.9466C34.5728 59.0978 34.6954 59.2205 34.8467 59.2205H46.743C46.8943 59.2205 47.0169 59.0978 47.0169 58.9466V58.1581C47.0169 58.0068 46.8943 57.8842 46.743 57.8842Z" fill="#3E93C4"/>
<path opacity="0.2" d="M46.743 57.8842H34.8467C34.6954 57.8842 34.5728 58.0068 34.5728 58.1581V58.9466C34.5728 59.0978 34.6954 59.2205 34.8467 59.2205H46.743C46.8943 59.2205 47.0169 59.0978 47.0169 58.9466V58.1581C47.0169 58.0068 46.8943 57.8842 46.743 57.8842Z" fill="black"/>
<path opacity="0.5" d="M36.3417 57.8842H35.9705C35.9408 57.8842 35.9167 57.9082 35.9167 57.9379V59.1667C35.9167 59.1964 35.9408 59.2205 35.9705 59.2205H36.3417C36.3714 59.2205 36.3955 59.1964 36.3955 59.1667V57.9379C36.3955 57.9082 36.3714 57.8842 36.3417 57.8842Z" fill="#3E93C4"/>
<path opacity="0.5" d="M45.9981 57.8842H45.6346C45.6049 57.8842 45.5808 57.9082 45.5808 57.9379V59.1667C45.5808 59.1964 45.6049 59.2205 45.6346 59.2205H45.9981C46.0278 59.2205 46.0518 59.1964 46.0518 59.1667V57.9379C46.0518 57.9082 46.0278 57.8842 45.9981 57.8842Z" fill="#3E93C4"/>
<path d="M38.4869 55.9539C38.2898 55.9539 38.1285 56.0486 38.1285 56.1638V57.6716C38.1285 57.7894 38.2898 57.8841 38.4869 57.8841H51.0642C51.1282 57.8841 51.182 57.8534 51.182 57.815V56.023C51.182 55.9846 51.1282 55.9539 51.0642 55.9539H38.4869Z" fill="#3E93C4"/>
<path opacity="0.9" d="M45.3119 56.0793H51.182V57.7561H45.3119C45.2698 57.7561 45.2295 57.7394 45.1997 57.7097C45.1699 57.6799 45.1532 57.6395 45.1532 57.5974V56.2381C45.1532 56.196 45.1699 56.1556 45.1997 56.1258C45.2295 56.0961 45.2698 56.0793 45.3119 56.0793Z" fill="white"/>
<path d="M44.6413 55.9539H34.6112C34.4599 55.9539 34.3373 56.0765 34.3373 56.2278V57.6102C34.3373 57.7615 34.4599 57.8841 34.6112 57.8841H44.6413C44.7926 57.8841 44.9152 57.7615 44.9152 57.6102V56.2278C44.9152 56.0765 44.7926 55.9539 44.6413 55.9539Z" fill="#3E93C4"/>
<path opacity="0.1" d="M44.6413 55.9539H34.6112C34.4599 55.9539 34.3373 56.0765 34.3373 56.2278V57.6102C34.3373 57.7615 34.4599 57.8841 34.6112 57.8841H44.6413C44.7926 57.8841 44.9152 57.7615 44.9152 57.6102V56.2278C44.9152 56.0765 44.7926 55.9539 44.6413 55.9539Z" fill="black"/>
<path d="M66.5394 63.8464H55.9743C55.9177 63.8464 55.8634 63.8687 55.8232 63.9085C55.7829 63.9483 55.76 64.0023 55.7593 64.0589C55.76 64.1155 55.7829 64.1695 55.8232 64.2093C55.8634 64.2491 55.9177 64.2714 55.9743 64.2714H66.5394C66.5958 64.2714 66.6498 64.249 66.6897 64.2092C66.7295 64.1693 66.7519 64.1153 66.7519 64.0589C66.7519 64.0026 66.7295 63.9485 66.6897 63.9087C66.6498 63.8688 66.5958 63.8464 66.5394 63.8464Z" fill="white"/>
<path d="M87.2089 63.3395H94.1516L94.7788 64.2483H86.5817L87.2089 63.3395Z" fill="#263238"/>
<path d="M97.9302 47.8284C97.9302 48.0133 97.8754 48.1939 97.7727 48.3476C97.6701 48.5012 97.5241 48.621 97.3534 48.6917C97.1826 48.7624 96.9948 48.7809 96.8135 48.7449C96.6323 48.7088 96.4658 48.6198 96.3351 48.4892C96.2044 48.3585 96.1154 48.192 96.0794 48.0107C96.0433 47.8295 96.0618 47.6416 96.1325 47.4709C96.2033 47.3001 96.323 47.1542 96.4767 47.0515C96.6303 46.9488 96.811 46.894 96.9958 46.894C97.1186 46.8937 97.2403 46.9176 97.3538 46.9645C97.4673 47.0113 97.5704 47.0801 97.6573 47.167C97.7441 47.2538 97.8129 47.3569 97.8598 47.4705C97.9066 47.584 97.9305 47.7056 97.9302 47.8284Z" fill="black"/>
<path d="M90.9106 63.9539C90.8619 63.9538 90.8141 63.9417 90.7712 63.9187C90.7283 63.8957 90.6917 63.8625 90.6646 63.822C90.6376 63.7816 90.6209 63.7351 90.616 63.6866C90.6111 63.6382 90.6182 63.5893 90.6367 63.5443L97.326 47.7133C97.3605 47.6471 97.4186 47.5964 97.4888 47.5712C97.559 47.546 97.6361 47.5481 97.7048 47.5771C97.7735 47.6062 97.8288 47.66 97.8596 47.7279C97.8905 47.7958 97.8946 47.8728 97.8713 47.9437L91.182 63.7721C91.1595 63.8256 91.1218 63.8714 91.0735 63.9037C91.0253 63.936 90.9687 63.9534 90.9106 63.9539Z" fill="#263238"/>
<path d="M97.5974 48.1279C97.5338 48.1272 97.472 48.1066 97.4207 48.0691L85.2735 38.958C85.2111 38.9112 85.1698 38.8414 85.1587 38.7641C85.1477 38.6868 85.1678 38.6083 85.2146 38.5459C85.2615 38.4834 85.3312 38.4421 85.4085 38.4311C85.4858 38.42 85.5643 38.4401 85.6268 38.487L97.7766 47.5929C97.8257 47.6306 97.8617 47.6827 97.8798 47.7419C97.8978 47.8011 97.8969 47.8645 97.8771 47.9231C97.8574 47.9818 97.8198 48.0328 97.7697 48.0691C97.7195 48.1054 97.6593 48.125 97.5974 48.1254V48.1279Z" fill="#263238"/>
<path d="M98.5318 47.8284C98.5318 48.0133 98.477 48.1939 98.3743 48.3476C98.2716 48.5012 98.1257 48.621 97.9549 48.6917C97.7842 48.7624 97.5963 48.7809 97.4151 48.7449C97.2338 48.7088 97.0673 48.6198 96.9366 48.4892C96.806 48.3585 96.717 48.192 96.6809 48.0107C96.6449 47.8295 96.6634 47.6416 96.7341 47.4709C96.8048 47.3001 96.9246 47.1542 97.0782 47.0515C97.2319 46.9488 97.4126 46.894 97.5974 46.894C97.7202 46.8937 97.8418 46.9176 97.9553 46.9645C98.0689 47.0113 98.172 47.0801 98.2588 47.167C98.3457 47.2538 98.4145 47.3569 98.4613 47.4705C98.5082 47.584 98.5321 47.7056 98.5318 47.8284Z" fill="#263238"/>
<path d="M85.4502 39.6545C85.9648 39.6545 86.382 39.2373 86.382 38.7226C86.382 38.208 85.9648 37.7908 85.4502 37.7908C84.9355 37.7908 84.5183 38.208 84.5183 38.7226C84.5183 39.2373 84.9355 39.6545 85.4502 39.6545Z" fill="#263238"/>
<path d="M84.1446 42.9823C83.8524 43.2745 83.4802 43.4734 83.075 43.554C82.6698 43.6346 82.2497 43.5933 81.868 43.4352C81.4863 43.2771 81.1601 43.0093 80.9305 42.6658C80.701 42.3223 80.5785 41.9184 80.5785 41.5052C80.5785 41.0921 80.701 40.6882 80.9305 40.3447C81.1601 40.0011 81.4863 39.7334 81.868 39.5753C82.2497 39.4172 82.6698 39.3758 83.075 39.4564C83.4802 39.537 83.8524 39.736 84.1446 40.0281C84.5357 40.4202 84.7554 40.9514 84.7554 41.5052C84.7554 42.059 84.5357 42.5903 84.1446 42.9823Z" fill="#3E93C4"/>
<path opacity="0.7" d="M84.1446 42.9823C83.8524 43.2745 83.4802 43.4734 83.075 43.554C82.6698 43.6346 82.2497 43.5933 81.868 43.4352C81.4863 43.2771 81.1601 43.0093 80.9305 42.6658C80.701 42.3223 80.5785 41.9184 80.5785 41.5052C80.5785 41.0921 80.701 40.6882 80.9305 40.3447C81.1601 40.0011 81.4863 39.7334 81.868 39.5753C82.2497 39.4172 82.6698 39.3758 83.075 39.4564C83.4802 39.537 83.8524 39.736 84.1446 40.0281C84.5357 40.4202 84.7554 40.9514 84.7554 41.5052C84.7554 42.059 84.5357 42.5903 84.1446 42.9823Z" fill="white"/>
<path d="M85.4501 38.7226C85.0348 38.3067 84.5415 37.9769 83.9986 37.7518C83.4557 37.5267 82.8737 37.4109 82.286 37.4109C81.6983 37.4109 81.1163 37.5267 80.5734 37.7518C80.0304 37.9769 79.5372 38.3067 79.1218 38.7226L85.4501 45.056C85.8664 44.6404 86.1967 44.1468 86.422 43.6034C86.6473 43.06 86.7633 42.4775 86.7633 41.8893C86.7633 41.301 86.6473 40.7186 86.422 40.1752C86.1967 39.6318 85.8664 39.1382 85.4501 38.7226Z" fill="#263238"/>
<g opacity="0.2">
<path d="M79.1193 38.7225L52.5414 64.2713H79.8079L85.4502 45.0534L79.1193 38.7225Z" fill="#3E93C4"/>
<path opacity="0.7" d="M79.5779 39L53 64.5488H80.2666L85.9088 45.3309L79.5779 39Z" fill="white"/>
</g>
</svg>
